{
  "title": "Pellichoopulu Telugu 2016 DesiSCR x264-HDF.mp4",
  "uid": 15681090,
  "size": 948383839,
  "categoryP": "video",
  "categoryS": "movies",
  "magnet": "?xt=urn:btih:f993bcd58e5e49578c7533c0c52cfe709e4b23b3&amp;dn=Pellichoopulu+Telugu+2016+DesiSCR+x264-HDF.mp4&amp;tr=udp%3A%2F%2Ftracker.leechers-paradise.org%3A6969&amp;tr=udp%3A%2F%2Fzer0day.ch%3A1337&amp;tr=udp%3A%2F%2Fopen.demonii.com%3A1337&amp;tr=udp%3A%2F%2Ftracker.coppersurfer.tk%3A6969&amp;tr=udp%3A%2F%2Fexodus.desync.com%3A6969",
  "seeders": 71,
  "leechers": 3,
  "uploader": null,
  "files": 1,
  "time": 1472320265,
  "description": "http://www.movierulzfull.in/ presents:\r\n\r\nPellichoopulu Telugu 2016 DesiSCR x264-HDF.mp4\r\n\r\nScreens:\r\n \nhttp://extraimago.com/images/2016/08/27/wSQ9.png \nhttp://extraimago.com/images/2016/08/27/wSQM.png \nhttp://extraimago.com/images/2016/08/27/wSQU.png \nhttp://extraimago.com/images/2016/08/27/wSQz.png \nhttp://extraimago.com/images/2016/08/27/wSQ0.png\r\n\r\nInfo:\r\n\r\nFormat                                   : MPEG-4\r\nFormat profile                           : Base Media\r\nCodec ID                                 : isom (isom/iso2/avc1/mp41)\r\nFile size                                : 904 MiB\r\nDuration                                 : 1 h 51 min\r\nOverall bit rate                         : 1 135 kb/s\r\nWriting application                      : Lavf57.29.101\r\n\r\nVideo\r\nID                                       : 1\r\nFormat                                   : AVC\r\nFormat/Info                              : Advanced Video Codec\r\nFormat profile                           :   \r\nFormat settings, CABAC                   : Yes\r\nFormat settings, ReFrames                : 4 frames\r\nCodec ID                                 : avc1\r\nCodec ID/Info                            : Advanced Video Coding\r\nDuration                                 : 1 h 51 min\r\nBit rate                                 : 1 000 kb/s\r\nWidth                                    : 640 pixels\r\nHeight                                   : 260 pixels\r\nDisplay aspect ratio                     : 2.462\r\nFrame rate mode                          : Constant\r\nFrame rate                               : 25.000 FPS\r\nColor space                              : YUV\r\nChroma subsampling                       : 4:2:0\r\nBit depth                                : 8 bits\r\nScan type                                : Progressive\r\nBits/(Pixel*Frame)                       : 0.240\r\nStream size                              : 797 MiB (88%)\r\nWriting library                          : x264 core 142 r2479 dd79a61\r\nEncoding settings                        : cabac=1 / ref=1 / deblock=1:0:0 / analyse=0x1:0x111 / me=hex / subme=2 / psy=1 / psy_rd=1.00:0.00 / mixed_ref=0 / me_range=16 / chroma_me=1 / trellis=0 / 8x8dct=0 / cqm=0 / deadzone=21,11 / fast_pskip=1 / chroma_qp_offset=0 / threads=6 / lookahead_threads=2 / sliced_threads=0 / nr=0 / decimate=1 / interlaced=0 / bluray_compat=0 / constrained_intra=0 / bframes=3 / b_pyramid=2 / b_adapt=1 / b_bias=0 / direct=1 / weightb=1 / open_gop=0 / weightp=1 / keyint=250 / keyint_min=25 / scenecut=40 / intra_refresh=0 / rc_lookahead=10 / rc=abr / mbtree=1 / bitrate=1000 / ratetol=1.0 / qcomp=0.60 / qpmin=0 / qpmax=69 / qpstep=4 / vbv_maxrate=20000 / vbv_bufsize=25000 / nal_hrd=none / filler=0 / ip_ratio=1.40 / aq=1:1.00\r\nColor range                              : Limited\r\nColor primaries                          : BT.709\r\nTransfer characteristics                 : BT.709\r\nMatrix coefficients                      : BT.709\r\n\r\nAudio\r\nID                                       : 2\r\nFormat                                   : AAC\r\nFormat/Info                              : Advanced Audio Codec\r\nFormat profile                           : LC\r\nCodec ID                                 : 40\r\nDuration                                 : 1 h 51 min\r\nBit rate mode                            : Constant\r\nBit rate                                 : 128 kb/s\r\nChannel(s)                               : 2 channels\r\nChannel positions                        : Front: L R\r\nSampling rate                            : 48.0 kHz\r\nFrame rate                               : 46.875 FPS (1024 spf)\r\nCompression mode                         : Lossy\r\nStream size                              : 102 MiB (11%)\r\nTitle                                    : Stereo\r\nDefault                                  : Yes\r\nAlternate group                          : 1 \r\n \nhttp://www.movierulzfull.in/pellichoopulu-full-movie-watch/\r\n \nhttp://tvmoviereviews.drupalgardens.com/content/pellichoopulu-review",
  "parsed": {
    "xt": "urn:btih:f993bcd58e5e49578c7533c0c52cfe709e4b23b3",
    "dn": "Pellichoopulu Telugu 2016 DesiSCR x264-HDF.mp4",
    "tr": [
      "udp://exodus.desync.com:6969",
      "udp://open.demonii.com:1337",
      "udp://tracker.coppersurfer.tk:6969",
      "udp://tracker.leechers-paradise.org:6969",
      "udp://zer0day.ch:1337"
    ],
    "infoHash": "f993bcd58e5e49578c7533c0c52cfe709e4b23b3",
    "infoHashBuffer": {
      "type": "Buffer",
      "data": [
        249,
        147,
        188,
        213,
        142,
        94,
        73,
        87,
        140,
        117,
        51,
        192,
        197,
        44,
        254,
        112,
        158,
        75,
        35,
        179
      ]
    },
    "name": "Pellichoopulu Telugu 2016 DesiSCR x264-HDF.mp4",
    "announce": [
      "udp://exodus.desync.com:6969",
      "udp://open.demonii.com:1337",
      "udp://tracker.coppersurfer.tk:6969",
      "udp://tracker.leechers-paradise.org:6969",
      "udp://zer0day.ch:1337"
    ],
    "urlList": []
  },
  "previous": 74,
  "peers": 45,
  "last_updated": "2016-12-25T18:35:49.828Z"
}